<svg xmlns="http://www.w3.org/2000/svg" viewBox="0 0 606 616" width="606" height="616" style="background:#fff">
<style>
  .outline { fill:none; stroke:#333; stroke-width:1.5 }
  .cutout { fill:#e8f0fe; stroke:#1a73e8; stroke-width:1 }
  .bend { stroke:#f44336; stroke-width:1; stroke-dasharray:8,4 }
  .label { font:bold 11px sans-serif; fill:#333 }
  .dim { font:10px monospace; fill:#666 }
  .title { font:bold 14px sans-serif; fill:#333 }
  .vent { fill:none; stroke:#4caf50; stroke-width:0.8 }
</style>
<text x="40" y="55" class="title">Piece 1: U-channel (Front + Ends) -- 993.5 x 500mm</text>
<rect x="40" y="60" width="397.4" height="200.0" class="outline"/>
<line x1="120.4" y1="60" x2="120.4" y2="260.0" class="bend"/>
<line x1="354.7" y1="60" x2="354.7" y2="260.0" class="bend"/>
<rect x="146.3" y="195.3" width="52.0" height="16.4" class="cutout"/>
<text x="172.3" y="207.5" text-anchor="middle" class="dim">Display 130x41</text>
<rect x="242.7" y="216.0" width="40.0" height="24.0" class="vent"/>
<rect x="60.2" y="68.0" width="40.0" height="20.0" rx="2.4" class="cutout"/>
<rect x="377.2" y="68.0" width="40.0" height="20.0" rx="2.4" class="cutout"/>
<text x="40" y="315.0" class="title">Piece 2: C-channel (Top + Back + Bottom) -- 1315.5 x 580mm</text>
<rect x="40" y="320.0" width="526.2" height="232.0" class="outline"/>
<line x1="200.8" y1="320.0" x2="200.8" y2="552.0" class="bend"/>
<line x1="403.1" y1="320.0" x2="403.1" y2="552.0" class="bend"/>
<circle cx="223.1" cy="536.0" r="5.6" class="cutout"/>
<circle cx="223.1" cy="516.0" r="4.4" class="cutout"/>
<rect x="289.3" y="501.0" width="75.0" height="41.0" class="vent"/>
<text x="40" y="577.0" class="title" fill="#4caf50">Validation: PASS (30/30 checks)</text>
</svg>